<svg width="1976" height="480" viewBox="0 0 1976 480" fill="none" xmlns="http://www.w3.org/2000/svg">
<path d="M667.64 338.8C632.64 338.8 609.31 312.55 609.31 274.64C609.31 236.73 632.64 210.48 667.64 210.48C702.22 210.48 725.55 236.73 725.55 274.64C725.55 312.55 702.22 338.8 667.64 338.8ZM667.64 166.32C603.48 166.32 557.65 212.15 557.65 274.64C557.65 337.13 603.48 382.96 667.64 382.96C731.38 382.96 777.21 337.13 777.21 274.64C777.21 212.15 731.38 166.32 667.64 166.32Z" fill="#00A1FC"/>
<path d="M456.83 222.56H397.67V134.24H456.83C489.32 134.24 502.66 155.07 502.66 178.4C502.66 201.73 489.33 222.56 456.83 222.56ZM459.33 88H342.26V379.63H397.67V268.81H459.33C520.16 268.81 556.4 231.31 556.4 178.4C556.4 125.49 520.16 88 459.33 88Z" fill="#00A1FC"/>
<path d="M851.09 379.63V247.98C851.09 226.73 862.34 215.9 881.5 215.9H922.3V169.66H875.67C829.84 169.66 799.85 196.33 799.85 242.99V379.64H851.09V379.63Z" fill="#00A1FC"/>
<path d="M255.19 244.63C229.52 213.18 144.89 229.64 78.96 250.69C78.13 250.98 77.27 250.41 77.29 249.61C77.39 246.28 77.45 242.92 77.45 239.52C77.45 221.06 75.94 205.17 73.24 189.54C73.14 188.98 73.51 188.46 74.11 188.31C128.69 168.41 238.63 162.25 257.44 243.72L257.45 243.74C257.75 244.94 255.97 245.64 255.19 244.63ZM199.95 336.03C198.15 337.37 195.79 335.17 197.33 333.59C223.9 306.44 245.73 263.37 53.24 350.98C52.06 351.51 50.88 350.28 51.66 349.32C62.27 334.17 71.73 309.74 76.01 275.12C76.05 274.7 76.33 274.33 76.76 274.16C197.38 225.71 333.61 227.5 199.95 336.03ZM38.92 119.37C37.82 118.81 38.28 117.29 39.54 117.3C72.92 117.4 173.45 114.9 225.26 180.92C225.97 182.05 224.35 183.21 223.32 182.31C207.68 168.7 165.36 145.66 67.81 165.83C67.13 166 66.42 165.62 66.26 165C58.49 140.17 48.62 126.76 38.92 119.37ZM253.3 88H34.11C15.27 88 0 103.49 0 122.61V345.02C0 364.14 15.27 379.63 34.11 379.63H253.29C272.13 379.63 287.4 364.14 287.4 345.02V122.61C287.4 103.5 272.13 88 253.3 88Z" fill="#00A1FC"/>
<path d="M1182.7 338.8C1147.7 338.8 1124.37 312.55 1124.37 274.64C1124.37 236.73 1147.7 210.48 1182.7 210.48C1217.28 210.48 1240.61 236.73 1240.61 274.64C1240.61 312.55 1217.28 338.8 1182.7 338.8ZM1182.7 166.32C1118.54 166.32 1072.71 212.15 1072.71 274.64C1072.71 337.13 1118.54 382.96 1182.7 382.96C1246.44 382.96 1292.27 337.13 1292.27 274.64C1292.27 212.15 1246.44 166.32 1182.7 166.32Z" fill="url(#paint0_linear_2530_587)"/>
<path d="M1654.99 338.48C1619.99 338.48 1596.66 312.23 1596.66 274.32C1596.66 236.41 1619.99 210.16 1654.99 210.16C1689.57 210.16 1712.9 236.41 1712.9 274.32C1712.9 312.23 1689.57 338.48 1654.99 338.48ZM1654.99 166C1590.83 166 1545 211.83 1545 274.32C1545 336.81 1590.83 382.64 1654.99 382.64C1718.73 382.64 1764.56 336.81 1764.56 274.32C1764.56 211.83 1718.73 166 1654.99 166Z" fill="url(#paint1_linear_2530_587)"/>
<path d="M948.141 106.33V306.31C948.141 352.97 978.141 379.63 1023.96 379.63H1058.12V333.39H1029.79C1010.62 333.39 999.381 322.56 999.381 301.31V212.57H1058.12V169.66H999.381V106.33H948.141Z" fill="url(#paint2_linear_2530_587)"/>
<path d="M1416.99 338.48C1381.99 338.48 1358.66 312.23 1358.66 274.32C1358.66 236.41 1381.99 210.16 1416.99 210.16C1451.57 210.16 1474.9 236.41 1474.9 274.32C1474.9 312.23 1451.57 338.48 1416.99 338.48ZM1416.99 166C1352.83 166 1307 211.83 1307 274.32C1307 336.81 1352.83 382.64 1416.99 382.64C1480.73 382.64 1526.56 336.81 1526.56 274.32C1526.56 211.83 1480.73 166 1416.99 166Z" fill="url(#paint3_linear_2530_587)"/>
<path d="M1904.54 320.142C1904.54 316.004 1903.33 312.267 1900.93 308.931C1898.53 305.594 1894.06 302.524 1887.52 299.722C1881.11 296.785 1871.84 294.116 1859.69 291.714C1848.75 289.312 1838.54 286.309 1829.06 282.705C1819.72 278.968 1811.58 274.497 1804.64 269.292C1797.83 264.087 1792.49 257.948 1788.62 250.874C1784.75 243.667 1782.82 235.459 1782.82 226.25C1782.82 217.174 1784.75 208.633 1788.62 200.625C1792.63 192.617 1798.3 185.544 1805.64 179.404C1813.11 173.132 1822.19 168.26 1832.87 164.79C1843.68 161.187 1855.82 159.385 1869.3 159.385C1888.12 159.385 1904.27 162.388 1917.75 168.394C1931.36 174.399 1941.77 182.674 1948.98 193.218C1956.32 203.628 1959.99 215.506 1959.99 228.853H1902.33C1902.33 223.247 1901.13 218.242 1898.73 213.838C1896.46 209.3 1892.86 205.763 1887.92 203.228C1883.12 200.558 1876.84 199.224 1869.1 199.224C1862.7 199.224 1857.16 200.358 1852.49 202.627C1847.81 204.762 1844.21 207.699 1841.67 211.436C1839.27 215.039 1838.07 219.043 1838.07 223.447C1838.07 226.784 1838.74 229.787 1840.07 232.456C1841.54 234.992 1843.88 237.327 1847.08 239.463C1850.28 241.598 1854.42 243.6 1859.49 245.469C1864.7 247.204 1871.1 248.805 1878.71 250.273C1894.33 253.477 1908.27 257.681 1920.55 262.886C1932.83 267.957 1942.57 274.897 1949.78 283.706C1956.99 292.381 1960.59 303.792 1960.59 317.939C1960.59 327.549 1958.46 336.357 1954.18 344.365C1949.91 352.373 1943.77 359.38 1935.77 365.386C1927.76 371.258 1918.15 375.863 1906.94 379.199C1895.86 382.402 1883.38 384.004 1869.5 384.004C1849.35 384.004 1832.27 380.4 1818.25 373.193C1804.37 365.986 1793.83 356.844 1786.62 345.767C1779.55 334.556 1776.01 323.078 1776.01 311.333H1830.66C1830.93 319.207 1832.93 325.547 1836.67 330.352C1840.54 335.156 1845.41 338.626 1851.28 340.762C1857.29 342.897 1863.76 343.965 1870.7 343.965C1878.18 343.965 1884.38 342.964 1889.32 340.962C1894.26 338.826 1898 336.024 1900.53 332.554C1903.2 328.95 1904.54 324.813 1904.54 320.142Z" fill="url(#paint4_linear_2530_587)"/>
<rect x="1476" y="103" width="51" height="277" fill="white"/>
<defs>
<linearGradient id="paint0_linear_2530_587" x1="1182.49" y1="166.32" x2="1182.49" y2="382.96" gradientUnits="userSpaceOnUse">
<stop stop-color="white"/>
</linearGradient>
<linearGradient id="paint1_linear_2530_587" x1="1654.78" y1="166" x2="1654.78" y2="382.64" gradientUnits="userSpaceOnUse">
<stop stop-color="white"/>
</linearGradient>
<linearGradient id="paint2_linear_2530_587" x1="1003.13" y1="106.33" x2="1003.13" y2="379.63" gradientUnits="userSpaceOnUse">
<stop stop-color="white"/>
</linearGradient>
<linearGradient id="paint3_linear_2530_587" x1="1416.78" y1="166" x2="1416.78" y2="382.64" gradientUnits="userSpaceOnUse">
<stop stop-color="white"/>
</linearGradient>
<linearGradient id="paint4_linear_2530_587" x1="1870.5" y1="0" x2="1870.5" y2="480" gradientUnits="userSpaceOnUse">
<stop stop-color="white"/>
</linearGradient>
</defs>
</svg>
