<?xml version="1.0" encoding="UTF-8"?><svg id="Camada_1" xmlns="http://www.w3.org/2000/svg" xmlns:xlink="http://www.w3.org/1999/xlink" viewBox="0 0 12 12"><defs><style>.cls-1{clip-path:url(#clippath-2);}.cls-2{clip-path:url(#clippath);}.cls-3{fill:none;}</style><clipPath id="clippath"><rect class="cls-3" width="12" height="12"/></clipPath><clipPath id="clippath-2"><rect class="cls-3" width="12" height="12"/></clipPath></defs><g class="cls-2"><g class="cls-1"><path d="M9.48,3.72H2.49c-.14,0-.25,.11-.25,.25s.11,.25,.25,.25h6.99c.14,0,.25-.11,.25-.25s-.11-.25-.25-.25"/><path d="M9.48,6.25H2.49c-.14,0-.25,.11-.25,.25s.11,.25,.25,.25h6.99c.14,0,.25-.11,.25-.25s-.11-.25-.25-.25"/><path d="M10.87,.75H1.06C.46,.75-.03,1.24-.03,1.85v6.81c0,.6,.49,1.1,1.1,1.1h3.41c.42,0,.81,.16,1.11,.46l1.72,1.71s.11,.07,.18,.07c.03,0,.06,0,.1-.02,.09-.04,.15-.13,.15-.23v-.74c0-.69,.56-1.25,1.25-1.25h1.9c.6,0,1.1-.49,1.1-1.1V1.85c0-.61-.49-1.1-1.1-1.1m.6,7.91c0,.33-.27,.6-.6,.6h-1.9c-.97,0-1.75,.78-1.75,1.75v.14l-1.29-1.29c-.39-.39-.91-.6-1.46-.6H1.06c-.33,0-.6-.27-.6-.6V1.85c0-.33,.27-.6,.6-.6H10.87c.33,0,.6,.27,.6,.6v6.81Z"/></g></g></svg>